PathFileType	4	(X/Y/Z)	Run_300 01
DataRate	CameraRate	NumFrames	NumMarkers	Units	OrigDataRate	OrigDataStartFrame	OrigNumFrames
100	100	6	42	mm	100	32	128
Frame#	Time	LASI			RASI			LPSI			RPSI			RTH1			RTH2			RTH3			LTH1			LTH2			LTH3			RTB1			RTB2			RTB3			LTB1			LTB2			LTB3			RCAL			RTOE			RMT5			LCAL			LTOE			LACR			RACR			CLAV			C7			RUA1			RUA2			RUA3			RLEL			RMEL			LUA1			LUA2			LUA3			LLEL			LMEL			RFAsuperior			RFAradius			RFAulna			LFAsuperior			LFAradius			LFAulna			LMT5			
		X1	Y1	Z1	X2	Y2	Z2	X3	Y3	Z3	X4	Y4	Z4	X5	Y5	Z5	X6	Y6	Z6	X7	Y7	Z7	X8	Y8	Z8	X9	Y9	Z9	X10	Y10	Z10	X11	Y11	Z11	X12	Y12	Z12	X13	Y13	Z13	X14	Y14	Z14	X15	Y15	Z15	X16	Y16	Z16	X17	Y17	Z17	X18	Y18	Z18	X19	Y19	Z19	X20	Y20	Z20	X21	Y21	Z21	X22	Y22	Z22	X23	Y23	Z23	X24	Y24	Z24	X25	Y25	Z25	X26	Y26	Z26	X27	Y27	Z27	X28	Y28	Z28	X29	Y29	Z29	X30	Y30	Z30	X31	Y31	Z31	X32	Y32	Z32	X33	Y33	Z33	X34	Y34	Z34	X35	Y35	Z35	X36	Y36	Z36	X37	Y37	Z37	X38	Y38	Z38	X39	Y39	Z39	X40	Y40	Z40	X41	Y41	Z41	X42	Y42	Z42	

26	0.68	730.571413	1056.927821	-435.769178	730.5226270000001	1026.555805	-186.865522	550.056643	1127.562354	-354.534509	554.578993	1120.153536	-270.587374	634.019287	903.028689	-137.171095	645.8108999999999	759.9211790000001	-158.74992	537.642306	681.16923	-177.632902	695.093294	953.099473	-501.955152	806.3827	877.956678	-474.440822	792.564602	721.99953	-467.353478	487.821456	432.870564	-240.229885	392.070815	374.731783	-192.512806	364.073524	274.870769	-252.590245	861.399673	506.777791	-402.357541	781.240574	449.683642	-466.778705	774.5696809999999	319.193173	-389.732315	188.673465	253.581016	-285.254095	338.781892	77.881383	-279.836434	284.643444	70.614125	-202.52651	606.8246820000001	222.685725	-371.008056	822.572125	139.804127	-369.035232	681.782614	1590.275296	-469.994672	705.5674289999999	1557.765772	-138.589847	768.2996920000001	1528.140803	-293.089827	630.524458	1601.854786	-315.685159	661.964393	1445.161574	-54.736616	587.532348	1369.018762	-70.259428	635.61547	1330.345034	-24.518186	629.395656	1235.540896	-0.416826	591.3944289999999	1213.311353	-71.861771	596.44614	1534.260689	-564.942484	509.569244	1486.111748	-551.736862	527.472991	1453.218997	-624.3783519999999	486.157406	1380.275649	-667.089928	427.387776	1374.824427	-614.63428	698.342345	1196.162218	-17.120977	876.309047	1199.371764	-122.449929	858.604753	1133.505766	-99.379268	535.866932	1267.630785	-635.189932	621.503146	1186.719038	-529.171609	571.056918	1149.731566	-553.706247	782.880264	112.089688	-446.490166	
27	0.6899999999999999	732.422058	1061.263019	-436.493681	732.400055	1031.004286	-189.198991	551.81695	1132.255006	-354.348702	556.986634	1125.709221	-270.217393	635.503872	907.085537	-137.318462	646.281032	763.7800559999999	-159.257428	537.238305	685.883918	-176.165522	693.516781	954.865031	-502.239393	804.4344170000001	877.985219	-474.527037	787.857113	721.427024	-466.453066	481.026289	438.787881	-238.418007	384.19206	383.573565	-190.008151	352.071049	284.880414	-249.874752	864.3937979999999	506.009585	-401.241847	789.703847	441.602196	-465.344514	794.406368	311.590208	-386.624138	177.799202	272.682301	-280.320223	318.52409	87.063749	-278.141045	263.563168	80.823115	-202.565191	636.016381	200.45638	-367.825933	857.810791	137.298801	-361.194282	681.149815	1593.486525	-471.368698	706.257431	1562.322529	-140.550506	768.256175	1532.604648	-294.977459	630.684488	1605.426544	-317.188057	662.709737	1450.593088	-56.300565	588.339455	1374.699999	-71.708327	635.977296	1336.429479	-25.081196	630.1483899999999	1241.013984	-1.042005	591.743162	1218.586068	-72.47431899999999	594.153969	1539.007936	-565.065928	507.080047	1492.25708	-550.723091	523.208435	1459.144454	-623.707506	479.963254	1386.770672	-666.0095669999999	422.24153	1381.766144	-612.265447	698.965817	1202.033322	-18.640762	875.6985570000001	1207.117716	-126.485588	859.19882	1141.18382	-102.770613	530.218768	1274.414284	-635.002972	617.997599	1193.476851	-530.027469	566.928349	1156.57113	-553.670441	822.136339	103.585363	-438.078477	
28	0.7	733.962447	1064.761845	-437.240308	734.174488	1035.096602	-190.813205	553.314653	1136.03642	-354.253424	558.843035	1130.676845	-269.547042	638.179609	910.064779	-137.322324	648.418291	766.808047	-159.958926	539.209517	689.048078	-174.465852	691.925425	954.932295	-502.526716	802.32698	876.0659460000001	-475.0125	782.461247	719.336915	-465.884447	476.093001	443.442342	-236.164025	377.333625	392.07014	-187.505074	340.684424	295.021252	-247.330372	865.338977	503.816315	-400.231817	796.654799	432.866944	-463.755648	812.189211	304.306144	-383.589224	166.458503	291.159613	-275.220876	298.853235	98.836555	-278.509936	244.122097	92.592506	-203.412309	664.087195	180.015293	-364.554382	889.9311310000001	136.194339	-354.003471	680.692334	1595.478263	-472.865601	706.804491	1565.58877	-142.473708	768.39012	1535.739151	-296.8561	630.837304	1607.895455	-318.801415	663.349597	1454.789323	-57.890746	588.781864	1379.145171	-73.029721	636.000417	1341.055562	-25.868197	630.22319	1245.292823	-1.566855	591.366997	1222.770257	-72.95568	592.413886	1542.070586	-565.621482	505.190742	1496.540013	-549.967043	519.7804640000001	1463.194368	-623.195182	475.062309	1391.329776	-665.319333	418.358208	1386.523617	-610.3643970000001	699.168595	1206.71006	-19.861748	874.30832	1212.28701	-130.074888	858.862428	1146.377032	-105.344721	526.212251	1279.376351	-635.0628400000001	616.152486	1198.73905	-531.0527049999999	564.636041	1161.637328	-553.974458	858.725783	97.16257	-430.241648	
29	0.71	735.021822	1066.713907	-437.9265	735.867664	1038.671253	-191.640806	554.381132	1138.19363	-354.17255	560.173768	1134.335152	-268.841733	641.62064	912.132209	-137.221085	651.898263	768.904719	-160.639711	543.088982	690.789534	-172.80331	690.672885	953.743414	-502.731197	800.037185	872.349814	-475.933156	776.521872	715.910168	-465.490088	472.981357	446.874153	-233.597544	371.7907	400.230921	-185.117281	330.434841	305.275838	-245.030062	864.486956	500.464301	-399.096018	801.666076	424.128086	-461.849911	827.548061	297.63614	-380.913046	155.788306	309.615188	-270.646991	279.997623	112.186891	-280.001176	225.773678	105.844939	-204.503207	689.95167	162.47391	-360.712078	918.087493	135.6833	-349.034463	680.460445	1596.2524	-474.590301	707.168547	1567.527697	-144.394186	768.6010199999999	1537.555273	-298.70961	630.934583	1609.348371	-320.607908	663.768449	1457.534861	-59.433478	588.711275	1382.257272	-74.1584	635.621839	1344.136696	-26.817918	629.59618	1248.374037	-2.073693	590.193502	1225.892889	-73.259058	591.353242	1543.513227	-566.70095	503.939545	1498.761982	-549.532645	517.29634	1465.337105	-622.9669	471.636715	1393.751121	-665.189095	415.92589	1388.852419	-609.104735	698.693665	1209.928088	-20.873867	872.268561	1214.606606	-133.135482	857.605599	1149.010539	-107.153977	524.000871	1282.329511	-635.416593	615.982311	1202.228073	-532.226058	564.1756779999999	1164.748728	-554.462485	890.308868	92.799182	-424.603959	
30	0.72	735.688629	1066.530868	-438.671572	737.477322	1041.345389	-192.249995	555.055196	1138.216066	-354.152833	561.243029	1136.119198	-268.528174	645.326725	913.445993	-137.06097	656.316782	769.937718	-161.048085	548.34559	691.096097	-171.420995	689.760542	951.580612	-502.910697	797.370937	867.038619	-477.107078	769.874158	711.179583	-464.884071	471.677528	449.180361	-231.03243	367.986044	407.98227	-183.032722	321.733624	315.605273	-243.003662	862.309555	496.438356	-397.710553	804.375707	416.136024	-459.683025	840.031115	291.900833	-378.912867	147.277341	328.639968	-267.675839	262.363671	126.047451	-280.392412	207.948801	120.843524	-204.633745	712.178176	148.649223	-356.085247	941.390565	134.938685	-347.556746	680.472639	1595.83089	-476.683663	707.271025	1568.274185	-146.325648	768.741173	1538.129094	-300.539041	630.928713	1609.874652	-322.694828	663.784547	1458.679531	-60.984298	587.995175	1384.095685	-75.182402	634.747966	1345.837751	-27.825788	628.202803	1250.314414	-2.674723	588.229841	1227.970374	-73.486324	591.004712	1543.337189	-568.380107	503.380909	1498.822173	-549.658648	515.892391	1465.465524	-623.273262	469.927647	1393.779868	-665.828532	415.066988	1388.472573	-608.767071	697.194131	1211.461923	-21.750217	869.682484	1213.862327	-135.668056	855.311956	1149.002444	-108.276058	523.724757	1283.023121	-636.077555	617.4763349999999	1203.635682	-533.455912	565.525717	1165.738642	-554.900942	914.71118	90.204644	-422.543598	
31	0.73	736.104277	1064.34772	-439.603606	738.99162	1042.803181	-193.11375	555.456019	1136.272155	-354.28785	562.268291	1135.810907	-268.920092	648.943655	913.964346	-136.885226	661.355052	769.774214	-160.962018	554.651099	689.859931	-170.380623	689.025217	948.478651	-503.141851	794.13848	860.371436	-478.219693	762.5431149999999	705.319509	-463.78964	472.265558	450.408189	-228.614504	366.160255	415.333063	-181.303574	314.897018	325.892219	-241.101738	859.323965	492.199989	-396.214134	804.603986	409.28699	-457.340967	849.059696	287.110393	-377.721395	141.85413	348.291898	-266.953649	246.346458	139.879092	-277.882654	190.669359	137.848205	-202.685145	729.278732	138.435177	-350.951181	958.873968	133.406	-349.825489	680.659708	1594.226471	-479.160419	707.016715	1568.02866	-148.27638	768.702165	1537.515553	-302.375335	630.782212	1609.484136	-325.090582	663.22264	1458.422395	-62.564031	586.568807	1384.809003	-76.30016500000001	633.289028	1346.422812	-28.849223	625.967845	1251.187006	-3.441225	585.55042	1229.019991	-73.84698400000001	591.283641	1541.462924	-570.709242	503.520251	1496.681325	-550.672647	515.67216	1463.381022	-624.397509	470.12636	1391.148792	-667.285798	415.779806	1385.202056	-609.619238	694.573346	1211.369117	-22.492645	866.563637	1210.226917	-137.542277	851.769548	1146.306648	-108.76369	525.449606	1281.212232	-637.06076	620.612573	1202.799058	-534.657691	568.63359	1164.487177	-555.076385	930.857469	88.589449	-424.34206	
